<svg id="Capa_1" data-name="Capa 1" xmlns="http://www.w3.org/2000/svg" viewBox="0 0 65 64.99"><defs><style>.cls-1{fill:#494d56;}.cls-2{fill:#fff;}</style></defs><title>fb-svg</title><path class="cls-1" d="M65,32.46A32.42,32.42,0,0,1,35.31,64.82a15.46,15.46,0,0,1-2.76.17A32.49,32.49,0,1,1,65,32.46Z"/><path class="cls-2" d="M36.23,25.66a3.81,3.81,0,0,1,2.94-1,16.88,16.88,0,0,1,4.44.61l1.26-6.82a24,24,0,0,0-8.05-1.17,13.33,13.33,0,0,0-6.71,1.42,7.59,7.59,0,0,0-3.61,3.71,17.52,17.52,0,0,0-1,6.86v2.68H20.12v7.8H25.5V64.24a32.47,32.47,0,0,0,7,.74,15.46,15.46,0,0,0,2.76-.17V39.75h7.13v-7.8H35.31V29.43C35.31,27.51,35.57,26.33,36.23,25.66Z"/></svg>