<svg id="Capa_1" data-name="Capa 1" xmlns="http://www.w3.org/2000/svg" viewBox="0 0 65 65.03"><defs><style>.cls-1{fill:#494d56;}.cls-2{fill:#fff;fill-rule:evenodd;}</style></defs><title>ig-svg</title><path class="cls-1" d="M64.9,32.58A32.5,32.5,0,1,1,32.39.06,32.5,32.5,0,0,1,64.9,32.58Z" transform="translate(0.1 -0.06)"/><path class="cls-2" d="M45.33,15H19.48c-3.08,0-4.67,1.61-4.67,4.7V45.52c0,3,1.64,4.6,4.51,4.6h26c3,0,4.65-1.63,4.65-4.65V19.63C50,16.65,48.33,15,45.33,15Zm-2.85,4C46,19,46,19,46,22.48s0,3.41-3.42,3.41-3.45,0-3.45-3.45S39.09,19,42.48,19ZM32.42,25.77a6.8,6.8,0,1,1-6.85,6.73A6.94,6.94,0,0,1,32.42,25.77ZM46,44c0,1.63-.45,2.1-2.09,2.1h-23c-1.61,0-2.06-.47-2.06-2.1,0-4.21,0-8.51-.06-12.78,0-1.21.33-1.49,1.45-1.44,1.61,0.11,1.64,0,1.45,1.61A10.76,10.76,0,1,0,43,30.58c-0.12-.61,0-0.73.58-0.73C46,29.67,46,29.63,46,32.14V44Z" transform="translate(0.1 -0.06)"/></svg>