<svg id="Capa_1" data-name="Capa 1" xmlns="http://www.w3.org/2000/svg" viewBox="0 0 65 65.01"><defs><style>.cls-1,.cls-3{fill:#fff;}.cls-2{fill:#494d56;}.cls-3{fill-rule:evenodd;}</style></defs><title>wpp-svg</title><path class="cls-1" d="M36.23,25.66a3.81,3.81,0,0,1,2.94-1,16.88,16.88,0,0,1,4.44.61l1.26-6.82a24,24,0,0,0-8.05-1.17,13.33,13.33,0,0,0-6.71,1.42,7.59,7.59,0,0,0-3.61,3.71,17.52,17.52,0,0,0-1,6.86v2.68H20.12v7.8H25.5V64.24a32.47,32.47,0,0,0,7,.74,15.46,15.46,0,0,0,2.76-.17V39.75h7.13v-7.8H35.31V29.43C35.31,27.51,35.57,26.33,36.23,25.66Z" transform="translate(0 -0.84)"/><path class="cls-2" d="M65,33.34A32.5,32.5,0,1,1,32.49.84,32.5,32.5,0,0,1,65,33.34Z" transform="translate(0 -0.84)"/><path class="cls-3" d="M51.77,28.69A19.79,19.79,0,0,0,32.49,13.43a26.13,26.13,0,0,0-3.78.39A19.74,19.74,0,0,0,15.18,42.61a1.27,1.27,0,0,1,.18,1c-0.92,3-1.77,6.12-2.59,9.18-0.14.53-.14,0.53,0.37,0.39,3.2-.88,6.38-1.68,9.57-2.48a0.88,0.88,0,0,1,.71,0A19.76,19.76,0,0,0,51.77,28.69ZM35.27,49.38a8.53,8.53,0,0,1-2.28.2,17,17,0,0,1-8.91-2.29,1.08,1.08,0,0,0-1-.17c-1.79.44-3.53,0.92-5.3,1.38-0.36.11-.4,0-0.32-0.33,0.47-1.62.91-3.29,1.42-5a1.25,1.25,0,0,0-.2-1.18,16.3,16.3,0,0,1,.58-18.4C23.43,18,29.16,15.71,36,17.17S47,23,48.52,29.63A16.3,16.3,0,0,1,35.27,49.38Z" transform="translate(0 -0.84)"/><path class="cls-3" d="M37.67,42.61a5.27,5.27,0,0,1-2.05-.27,20,20,0,0,1-10.69-7.86,11.17,11.17,0,0,1-2.29-4.65,5.4,5.4,0,0,1,1.78-5.29A3.08,3.08,0,0,1,27,24.15a2.2,2.2,0,0,1,.44.53c0.56,1.41,1.16,2.71,1.73,4a1,1,0,0,1-.08.83,7.74,7.74,0,0,1-1.21,1.64,0.75,0.75,0,0,0-.12,1.09,13.36,13.36,0,0,0,6.75,5.79,0.77,0.77,0,0,0,1-.23c0.51-.59,1-1.23,1.48-1.85a0.83,0.83,0,0,1,1.1-.27L41,37a4.23,4.23,0,0,0,.67.3c1,0.5,1,.56.86,1.61C42.38,41,40.79,42.07,39,42.57A3.56,3.56,0,0,1,37.67,42.61Z" transform="translate(0 -0.84)"/></svg>